<svg width="20" height="20" viewBox="0 0 20 20" fill="none" xmlns="http://www.w3.org/2000/svg">
<path fill-rule="evenodd" clip-rule="evenodd" d="M10.0347 3.12507C7.31452 3.11031 5.01159 5.42986 5.01538 8.1242L5.01538 8.12508L5.01538 8.75008C5.01538 11.6349 4.41051 13.3722 3.83008 14.3751H16.1694C15.589 13.3722 14.9841 11.6349 14.9841 8.75008V8.1954C14.9841 5.42602 12.7736 3.14615 10.0347 3.12507ZM3.76538 8.12553C3.76086 4.74177 6.62387 1.85607 10.0423 1.87509L10.0436 1.8751C13.4919 1.90123 16.2341 4.76185 16.2341 8.1954V8.75008C16.2341 11.4584 16.8009 12.971 17.2516 13.7494L17.252 13.7501C17.3615 13.9398 17.4192 14.1549 17.4194 14.374C17.4196 14.593 17.3622 14.8083 17.2531 14.9982C17.1439 15.1881 16.9867 15.3459 16.7973 15.456C16.6079 15.566 16.3929 15.6243 16.1738 15.6251L16.1716 15.6251H3.82788L3.82568 15.6251C3.60663 15.6243 3.39163 15.566 3.20222 15.456C3.01281 15.3459 2.85563 15.1881 2.74645 14.9982C2.63726 14.8083 2.57988 14.593 2.58008 14.374C2.58027 14.1549 2.63802 13.9398 2.74755 13.7501L2.74792 13.7494C3.19862 12.971 3.76538 11.4584 3.76538 8.75008V8.12553Z" fill="black"/>
<path fill-rule="evenodd" clip-rule="evenodd" d="M7.49975 14.3751C7.84493 14.3751 8.12475 14.6549 8.12475 15.0001V15.6251C8.12475 16.1224 8.3223 16.5993 8.67393 16.9509C9.02556 17.3025 9.50247 17.5001 9.99975 17.5001C10.497 17.5001 10.9739 17.3025 11.3256 16.9509C11.6772 16.5993 11.8748 16.1224 11.8748 15.6251V15.0001C11.8748 14.6549 12.1546 14.3751 12.4998 14.3751C12.8449 14.3751 13.1248 14.6549 13.1248 15.0001V15.6251C13.1248 16.4539 12.7955 17.2487 12.2095 17.8348C11.6234 18.4208 10.8286 18.7501 9.99975 18.7501C9.17095 18.7501 8.37609 18.4208 7.79004 17.8348C7.20399 17.2487 6.87475 16.4539 6.87475 15.6251V15.0001C6.87475 14.6549 7.15457 14.3751 7.49975 14.3751Z" fill="black"/>
</svg>
