<svg width="15" height="15" viewBox="0 0 15 15" fill="none" xmlns="http://www.w3.org/2000/svg">
<g clip-path="url(#clip0_666_4303)">
<path fill-rule="evenodd" clip-rule="evenodd" d="M6.87402 1.8752C6.87402 1.20426 7.43104 0.584164 8.18496 0.659557L8.12277 1.28145L8.18508 0.659569C9.7635 0.817718 11.2387 1.51684 12.3605 2.63842C13.4823 3.75999 14.1818 5.235 14.3403 6.81338L14.3403 6.81353C14.4157 7.56654 13.796 8.12454 13.1247 8.12458C13.1247 8.12458 13.1247 8.12458 13.1246 8.12458L8.12402 8.12521C7.7925 8.12521 7.47456 7.99351 7.24014 7.75909C7.00572 7.52467 6.87402 7.20673 6.87402 6.87521V1.8752ZM8.12402 1.91007V6.87521L13.0898 6.87458C12.9479 5.60723 12.3795 4.42495 11.4767 3.5224C10.5739 2.61982 9.39146 2.05162 8.12402 1.91007Z" fill="black"/>
<path fill-rule="evenodd" clip-rule="evenodd" d="M5.57309 1.51874C5.71114 1.83511 5.56659 2.20349 5.25023 2.34155C4.4081 2.70904 3.66881 3.27723 3.097 3.99644C2.52519 4.71565 2.13827 5.56399 1.97006 6.46728C1.80186 7.37057 1.85748 8.30132 2.13208 9.17814C2.40668 10.055 2.8919 10.8512 3.5453 11.4972C4.1987 12.1431 5.0004 12.6192 5.88031 12.8838C6.76022 13.1484 7.69154 13.1934 8.59285 13.0149C9.49416 12.8363 10.338 12.4398 11.0507 11.8598C11.7633 11.2798 12.323 10.5341 12.6809 9.6878C12.8153 9.36987 13.182 9.22113 13.4999 9.35556C13.8178 9.49 13.9666 9.85671 13.8322 10.1746C13.3948 11.209 12.7107 12.1204 11.8397 12.8293C10.9687 13.5381 9.93731 14.0229 8.8357 14.241C7.7341 14.4592 6.59582 14.4042 5.52038 14.0809C4.44494 13.7575 3.46508 13.1756 2.66648 12.3861C1.86787 11.5965 1.27484 10.6234 0.939214 9.55172C0.603591 8.48004 0.535601 7.34246 0.741188 6.23844C0.946776 5.13442 1.41968 4.09756 2.11856 3.21853C2.81744 2.33949 3.72101 1.64504 4.75028 1.19588C5.06664 1.05782 5.43503 1.20237 5.57309 1.51874Z" fill="black"/>
</g>
<defs>
<clipPath id="clip0_666_4303">
<rect width="15" height="15" fill="white"/>
</clipPath>
</defs>
</svg>
