<svg width="16" height="15" viewBox="0 0 16 15" fill="none" xmlns="http://www.w3.org/2000/svg">
<path fill-rule="evenodd" clip-rule="evenodd" d="M2.08203 11.25C2.08203 10.9048 2.36185 10.625 2.70703 10.625H7.70703C8.05221 10.625 8.33203 10.9048 8.33203 11.25C8.33203 11.5952 8.05221 11.875 7.70703 11.875H2.70703C2.36185 11.875 2.08203 11.5952 2.08203 11.25Z" fill="black"/>
<path fill-rule="evenodd" clip-rule="evenodd" d="M14.399 9.55806C14.6431 9.80214 14.6431 10.1979 14.399 10.4419L11.899 12.9419C11.6549 13.186 11.2592 13.186 11.0151 12.9419L9.76509 11.6919C9.52101 11.4479 9.52101 11.0521 9.76509 10.8081C10.0092 10.564 10.4049 10.564 10.649 10.8081L11.457 11.6161L13.5151 9.55806C13.7592 9.31398 14.1549 9.31398 14.399 9.55806Z" fill="black"/>
<path fill-rule="evenodd" clip-rule="evenodd" d="M2.08203 7.5C2.08203 7.15482 2.36185 6.875 2.70703 6.875H10.832C11.1772 6.875 11.457 7.15482 11.457 7.5C11.457 7.84518 11.1772 8.125 10.832 8.125H2.70703C2.36185 8.125 2.08203 7.84518 2.08203 7.5Z" fill="black"/>
<path fill-rule="evenodd" clip-rule="evenodd" d="M2.08203 3.75C2.08203 3.40482 2.36185 3.125 2.70703 3.125H10.832C11.1772 3.125 11.457 3.40482 11.457 3.75C11.457 4.09518 11.1772 4.375 10.832 4.375H2.70703C2.36185 4.375 2.08203 4.09518 2.08203 3.75Z" fill="black"/>
</svg>
