<svg width="15" height="15" viewBox="0 0 15 15" fill="none" xmlns="http://www.w3.org/2000/svg">
<path fill-rule="evenodd" clip-rule="evenodd" d="M3.41529 9.66529C4.00134 9.07924 4.7962 8.75 5.625 8.75H9.375C10.2038 8.75 10.9987 9.07924 11.5847 9.66529C12.1708 10.2513 12.5 11.0462 12.5 11.875V13.125C12.5 13.4702 12.2202 13.75 11.875 13.75C11.5298 13.75 11.25 13.4702 11.25 13.125V11.875C11.25 11.3777 11.0525 10.9008 10.7008 10.5492C10.3492 10.1975 9.87228 10 9.375 10H5.625C5.12772 10 4.65081 10.1975 4.29917 10.5492C3.94754 10.9008 3.75 11.3777 3.75 11.875V13.125C3.75 13.4702 3.47018 13.75 3.125 13.75C2.77982 13.75 2.5 13.4702 2.5 13.125V11.875C2.5 11.0462 2.82924 10.2513 3.41529 9.66529Z" fill="black"/>
<path fill-rule="evenodd" clip-rule="evenodd" d="M7.5 2.5C6.46447 2.5 5.625 3.33947 5.625 4.375C5.625 5.41053 6.46447 6.25 7.5 6.25C8.53553 6.25 9.375 5.41053 9.375 4.375C9.375 3.33947 8.53553 2.5 7.5 2.5ZM4.375 4.375C4.375 2.64911 5.77411 1.25 7.5 1.25C9.22589 1.25 10.625 2.64911 10.625 4.375C10.625 6.10089 9.22589 7.5 7.5 7.5C5.77411 7.5 4.375 6.10089 4.375 4.375Z" fill="black"/>
</svg>
