<svg width="12" height="12" viewBox="0 0 12 12" fill="none" xmlns="http://www.w3.org/2000/svg">
<path d="M1.5 1.5V9.5C1.5 9.76522 1.60536 10.0196 1.79289 10.2071C1.98043 10.3946 2.23478 10.5 2.5 10.5H10.5" stroke="black" stroke-linecap="round" stroke-linejoin="round"/>
<path d="M3.5 5.60346C3.50001 5.53729 3.52627 5.47382 3.573 5.42696L4.573 4.42696C4.59622 4.40368 4.62381 4.38521 4.65418 4.37261C4.68456 4.36 4.71712 4.35352 4.75 4.35352C4.78288 4.35352 4.81544 4.36 4.84582 4.37261C4.87619 4.38521 4.90378 4.40368 4.927 4.42696L6.573 6.07296C6.59622 6.09624 6.62381 6.11472 6.65418 6.12732C6.68456 6.13992 6.71712 6.14641 6.75 6.14641C6.78288 6.14641 6.81544 6.13992 6.84582 6.12732C6.87619 6.11472 6.90378 6.09624 6.927 6.07296L9.073 3.92696C9.10793 3.89194 9.15247 3.86807 9.20098 3.85837C9.24949 3.84867 9.29978 3.85358 9.3455 3.87248C9.39122 3.89137 9.4303 3.92341 9.4578 3.96452C9.4853 4.00564 9.49999 4.05399 9.5 4.10346V7.99996C9.5 8.13257 9.44732 8.25975 9.35355 8.35352C9.25979 8.44728 9.13261 8.49996 9 8.49996H4C3.86739 8.49996 3.74021 8.44728 3.64645 8.35352C3.55268 8.25975 3.5 8.13257 3.5 7.99996V5.60346Z" stroke="black" stroke-linecap="round" stroke-linejoin="round"/>
</svg>
