<svg width="15" height="15" viewBox="0 0 15 15" fill="none" xmlns="http://www.w3.org/2000/svg">
<path fill-rule="evenodd" clip-rule="evenodd" d="M1.79917 1.79917C2.15081 1.44754 2.62772 1.25 3.125 1.25H5C5.34518 1.25 5.625 1.52982 5.625 1.875C5.625 2.22018 5.34518 2.5 5 2.5H3.125C2.95924 2.5 2.80027 2.56585 2.68306 2.68306C2.56585 2.80027 2.5 2.95924 2.5 3.125V5C2.5 5.34518 2.22018 5.625 1.875 5.625C1.52982 5.625 1.25 5.34518 1.25 5V3.125C1.25 2.62772 1.44754 2.15081 1.79917 1.79917Z" fill="black"/>
<path fill-rule="evenodd" clip-rule="evenodd" d="M9.375 1.875C9.375 1.52982 9.65482 1.25 10 1.25H11.875C12.3723 1.25 12.8492 1.44754 13.2008 1.79917C13.5525 2.15081 13.75 2.62772 13.75 3.125V5C13.75 5.34518 13.4702 5.625 13.125 5.625C12.7798 5.625 12.5 5.34518 12.5 5V3.125C12.5 2.95924 12.4342 2.80027 12.3169 2.68306C12.1997 2.56585 12.0408 2.5 11.875 2.5H10C9.65482 2.5 9.375 2.22018 9.375 1.875Z" fill="black"/>
<path fill-rule="evenodd" clip-rule="evenodd" d="M1.875 9.375C2.22018 9.375 2.5 9.65482 2.5 10V11.875C2.5 12.0408 2.56585 12.1997 2.68306 12.3169C2.80027 12.4342 2.95924 12.5 3.125 12.5H5C5.34518 12.5 5.625 12.7798 5.625 13.125C5.625 13.4702 5.34518 13.75 5 13.75H3.125C2.62772 13.75 2.15081 13.5525 1.79917 13.2008C1.44754 12.8492 1.25 12.3723 1.25 11.875V10C1.25 9.65482 1.52982 9.375 1.875 9.375Z" fill="black"/>
<path fill-rule="evenodd" clip-rule="evenodd" d="M13.125 9.375C13.4702 9.375 13.75 9.65482 13.75 10V11.875C13.75 12.3723 13.5525 12.8492 13.2008 13.2008C12.8492 13.5525 12.3723 13.75 11.875 13.75H10C9.65482 13.75 9.375 13.4702 9.375 13.125C9.375 12.7798 9.65482 12.5 10 12.5H11.875C12.0408 12.5 12.1997 12.4342 12.3169 12.3169C12.4342 12.1997 12.5 12.0408 12.5 11.875V10C12.5 9.65482 12.7798 9.375 13.125 9.375Z" fill="black"/>
</svg>
