<svg width="12" height="12" viewBox="0 0 12 12" fill="none" xmlns="http://www.w3.org/2000/svg">
<path d="M5 6.5C6.38071 6.5 7.5 5.38071 7.5 4C7.5 2.61929 6.38071 1.5 5 1.5C3.61929 1.5 2.5 2.61929 2.5 4C2.5 5.38071 3.61929 6.5 5 6.5Z" stroke="black" stroke-linecap="round" stroke-linejoin="round"/>
<path d="M1 10.5001C1.00006 9.8706 1.1487 9.24999 1.43383 8.68874C1.71896 8.1275 2.13253 7.64148 2.64091 7.27021C3.14929 6.89894 3.73812 6.6529 4.35952 6.5521C4.98091 6.4513 5.61733 6.49859 6.217 6.69012" stroke="black" stroke-linecap="round" stroke-linejoin="round"/>
<path d="M9 10.5C9.82843 10.5 10.5 9.82843 10.5 9C10.5 8.17157 9.82843 7.5 9 7.5C8.17157 7.5 7.5 8.17157 7.5 9C7.5 9.82843 8.17157 10.5 9 10.5Z" stroke="black" stroke-linecap="round" stroke-linejoin="round"/>
<path d="M11.0008 10.9998L10.0508 10.0498" stroke="black" stroke-linecap="round" stroke-linejoin="round"/>
</svg>
