<svg width="12" height="12" viewBox="0 0 12 12" fill="none" xmlns="http://www.w3.org/2000/svg">
<g clip-path="url(#clip0_665_5129)">
<path d="M6 11V6.5" stroke="black" stroke-linecap="round" stroke-linejoin="round"/>
<path d="M7.58477 1.10521C7.7093 1.03558 7.84959 0.999023 7.99227 0.999023C8.13494 0.999023 8.27523 1.03558 8.39977 1.10521L10.4998 2.28521C10.6485 2.36931 10.7722 2.49139 10.8583 2.63897C10.9444 2.78656 10.9898 2.95435 10.9898 3.12521C10.9898 3.29607 10.9444 3.46386 10.8583 3.61145C10.7722 3.75903 10.6485 3.88111 10.4998 3.96521L4.40977 7.39521C4.28487 7.46645 4.14356 7.50392 3.99977 7.50392C3.85597 7.50392 3.71467 7.46645 3.58977 7.39521L1.49977 6.21521C1.35104 6.13111 1.22731 6.00903 1.14122 5.86145C1.05513 5.71386 1.00977 5.54607 1.00977 5.37521C1.00977 5.20435 1.05513 5.03656 1.14122 4.88897C1.22731 4.74139 1.35104 4.61931 1.49977 4.53521L7.58477 1.10521Z" stroke="black" stroke-linecap="round" stroke-linejoin="round"/>
<path d="M10 6.5V8.435C10.0002 8.62372 9.94854 8.80888 9.85066 8.97024C9.75279 9.1316 9.61246 9.26297 9.445 9.35L6.445 10.89C6.30754 10.9614 6.15491 10.9987 6 10.9987C5.84509 10.9987 5.69246 10.9614 5.555 10.89L2.555 9.35C2.38754 9.26297 2.24722 9.1316 2.14934 8.97024C2.05147 8.80888 1.99981 8.62372 2 8.435V6.5" stroke="black" stroke-linecap="round" stroke-linejoin="round"/>
<path d="M10.4998 6.21512C10.6485 6.13102 10.7722 6.00894 10.8583 5.86136C10.9444 5.71377 10.9898 5.54598 10.9898 5.37512C10.9898 5.20426 10.9444 5.03647 10.8583 4.88889C10.7722 4.7413 10.6485 4.61922 10.4998 4.53512L4.41477 1.10012C4.29071 1.02908 4.15023 0.991699 4.00727 0.991699C3.8643 0.991699 3.72383 1.02908 3.59977 1.10012L1.49977 2.28512C1.35104 2.36922 1.22731 2.4913 1.14122 2.63889C1.05513 2.78647 1.00977 2.95426 1.00977 3.12512C1.00977 3.29598 1.05513 3.46377 1.14122 3.61136C1.22731 3.75894 1.35104 3.88102 1.49977 3.96512L7.58977 7.39512C7.71376 7.46636 7.85426 7.50385 7.99727 7.50385C8.14027 7.50385 8.28077 7.46636 8.40477 7.39512L10.4998 6.21512Z" stroke="black" stroke-linecap="round" stroke-linejoin="round"/>
</g>
<defs>
<clipPath id="clip0_665_5129">
<rect width="12" height="12" fill="white"/>
</clipPath>
</defs>
</svg>
