<svg width="15" height="15" viewBox="0 0 15 15" fill="none" xmlns="http://www.w3.org/2000/svg">
<g clip-path="url(#clip0_676_9969)">
<path fill-rule="evenodd" clip-rule="evenodd" d="M10.5848 4.58776C9.43796 3.91481 8.10239 3.63569 6.78203 3.79304C6.43928 3.83389 6.12831 3.58915 6.08746 3.24639C6.04661 2.90364 6.29136 2.59267 6.63411 2.55183C8.22548 2.36218 9.83519 2.69858 11.2174 3.50967C12.5997 4.32075 13.6784 5.56193 14.2891 7.04368C14.2919 7.05051 14.2946 7.05739 14.2971 7.06431C14.4013 7.34495 14.4013 7.65367 14.2971 7.93431C14.2945 7.9413 14.2918 7.94823 14.289 7.95512C14.0379 8.56381 13.7061 9.13596 13.3025 9.65618C13.0909 9.9289 12.6983 9.97846 12.4256 9.76686C12.1529 9.55527 12.1033 9.16266 12.3149 8.88994C12.6452 8.46422 12.9175 7.99659 13.1248 7.4993C12.6167 6.27901 11.7252 5.25695 10.5848 4.58776Z" fill="black"/>
<path fill-rule="evenodd" clip-rule="evenodd" d="M6.58553 5.74796C6.83381 5.98775 6.84069 6.38342 6.60089 6.63171C6.37319 6.86746 6.2472 7.18321 6.25005 7.51096C6.2529 7.8387 6.38436 8.15222 6.61612 8.38398C6.84788 8.61574 7.16139 8.7472 7.48914 8.75005C7.81688 8.7529 8.13264 8.6269 8.36839 8.3992C8.61667 8.15941 9.01234 8.16628 9.25214 8.41457C9.49194 8.66285 9.48506 9.05852 9.23678 9.29832C8.76527 9.75371 8.13377 10.0057 7.47828 10C6.82279 9.9943 6.19575 9.73138 5.73223 9.26786C5.26871 8.80434 5.00579 8.17731 5.00009 7.52182C4.9944 6.86633 5.24638 6.23482 5.70178 5.76332C5.94158 5.51503 6.33725 5.50816 6.58553 5.74796Z" fill="black"/>
<path fill-rule="evenodd" clip-rule="evenodd" d="M4.6046 3.74865C4.78095 4.04538 4.68337 4.42889 4.38664 4.60524C3.25974 5.27498 2.37904 6.29016 1.87499 7.49984C2.20819 8.29951 2.70811 9.01903 3.34147 9.61033C3.98031 10.2068 4.73997 10.6588 5.5689 10.9357C6.39784 11.2127 7.27664 11.3081 8.1457 11.2155C9.01475 11.1229 9.85372 10.8444 10.6057 10.399C10.9027 10.2231 11.286 10.3212 11.4619 10.6182C11.6379 10.9152 11.5397 11.2985 11.2427 11.4745C10.3365 12.0112 9.32548 12.3468 8.27816 12.4584C7.23084 12.5701 6.17176 12.4551 5.17279 12.1213C4.17382 11.7875 3.25833 11.2428 2.48845 10.524C1.71856 9.80528 1.11229 8.92932 0.710774 7.9556C0.707941 7.94873 0.70523 7.94181 0.702644 7.93484C0.598468 7.6542 0.598468 7.34549 0.702644 7.06484C0.70523 7.05787 0.707941 7.05095 0.710775 7.04408C1.31647 5.57523 2.38219 4.34243 3.74801 3.53069C4.04474 3.35434 4.42825 3.45193 4.6046 3.74865Z" fill="black"/>
<path fill-rule="evenodd" clip-rule="evenodd" d="M0.808058 0.808058C1.05214 0.563981 1.44786 0.563981 1.69194 0.808058L14.1919 13.3081C14.436 13.5521 14.436 13.9479 14.1919 14.1919C13.9479 14.436 13.5521 14.436 13.3081 14.1919L0.808058 1.69194C0.563981 1.44786 0.563981 1.05214 0.808058 0.808058Z" fill="black"/>
</g>
<defs>
<clipPath id="clip0_676_9969">
<rect width="15" height="15" fill="white"/>
</clipPath>
</defs>
</svg>
