<svg width="26" height="20" viewBox="0 0 26 20" fill="none" xmlns="http://www.w3.org/2000/svg">
<path fill-rule="evenodd" clip-rule="evenodd" d="M2.16699 10.2501C2.16699 9.65177 2.65202 9.16675 3.25033 9.16675H3.26116C3.85947 9.16675 4.34449 9.65177 4.34449 10.2501C4.34449 10.8484 3.85947 11.3334 3.26116 11.3334H3.25033C2.65202 11.3334 2.16699 10.8484 2.16699 10.2501Z" fill="black"/>
<path fill-rule="evenodd" clip-rule="evenodd" d="M2.16699 15.4168C2.16699 14.8185 2.65202 14.3335 3.25033 14.3335H3.26116C3.85947 14.3335 4.34449 14.8185 4.34449 15.4168C4.34449 16.0151 3.85947 16.5002 3.26116 16.5002H3.25033C2.65202 16.5002 2.16699 16.0151 2.16699 15.4168Z" fill="black"/>
<path fill-rule="evenodd" clip-rule="evenodd" d="M2.16699 5.08333C2.16699 4.48502 2.65202 4 3.25033 4H3.26116C3.85947 4 4.34449 4.48502 4.34449 5.08333C4.34449 5.68164 3.85947 6.16667 3.26116 6.16667H3.25033C2.65202 6.16667 2.16699 5.68164 2.16699 5.08333Z" fill="black"/>
<path fill-rule="evenodd" clip-rule="evenodd" d="M7.34424 10.2501C7.34424 9.65177 7.82926 9.16675 8.42757 9.16675H22.5109C23.1092 9.16675 23.5942 9.65177 23.5942 10.2501C23.5942 10.8484 23.1092 11.3334 22.5109 11.3334H8.42757C7.82926 11.3334 7.34424 10.8484 7.34424 10.2501Z" fill="black"/>
<path fill-rule="evenodd" clip-rule="evenodd" d="M7.34424 15.4168C7.34424 14.8185 7.82926 14.3335 8.42757 14.3335H22.5109C23.1092 14.3335 23.5942 14.8185 23.5942 15.4168C23.5942 16.0151 23.1092 16.5002 22.5109 16.5002H8.42757C7.82926 16.5002 7.34424 16.0151 7.34424 15.4168Z" fill="black"/>
<path fill-rule="evenodd" clip-rule="evenodd" d="M7.34424 5.08333C7.34424 4.48502 7.82926 4 8.42757 4H22.5109C23.1092 4 23.5942 4.48502 23.5942 5.08333C23.5942 5.68164 23.1092 6.16667 22.5109 6.16667H8.42757C7.82926 6.16667 7.34424 5.68164 7.34424 5.08333Z" fill="black"/>
</svg>
