<svg width="16" height="15" viewBox="0 0 16 15" fill="none" xmlns="http://www.w3.org/2000/svg">
<path fill-rule="evenodd" clip-rule="evenodd" d="M6.10796 1.43306C6.35204 1.67714 6.35204 2.07286 6.10796 2.31694L4.0499 4.375L6.10796 6.43306C6.35204 6.67714 6.35204 7.07286 6.10796 7.31694C5.86388 7.56102 5.46815 7.56102 5.22407 7.31694L2.72407 4.81694C2.48 4.57286 2.48 4.17714 2.72407 3.93306L5.22407 1.43306C5.46815 1.18898 5.86388 1.18898 6.10796 1.43306Z" fill="black"/>
<path fill-rule="evenodd" clip-rule="evenodd" d="M2.54102 4.375C2.54102 4.02982 2.82084 3.75 3.16602 3.75H13.166C13.5112 3.75 13.791 4.02982 13.791 4.375C13.791 4.72018 13.5112 5 13.166 5H3.16602C2.82084 5 2.54102 4.72018 2.54102 4.375Z" fill="black"/>
<path fill-rule="evenodd" clip-rule="evenodd" d="M10.2241 7.68306C10.4682 7.43898 10.8639 7.43898 11.108 7.68306L13.608 10.1831C13.852 10.4271 13.852 10.8229 13.608 11.0669L11.108 13.5669C10.8639 13.811 10.4682 13.811 10.2241 13.5669C9.98 13.3229 9.98 12.9271 10.2241 12.6831L12.2821 10.625L10.2241 8.56694C9.98 8.32286 9.98 7.92714 10.2241 7.68306Z" fill="black"/>
<path fill-rule="evenodd" clip-rule="evenodd" d="M2.54102 10.625C2.54102 10.2798 2.82084 10 3.16602 10H13.166C13.5112 10 13.791 10.2798 13.791 10.625C13.791 10.9702 13.5112 11.25 13.166 11.25H3.16602C2.82084 11.25 2.54102 10.9702 2.54102 10.625Z" fill="black"/>
</svg>
