<svg width="15" height="15" viewBox="0 0 15 15" fill="none" xmlns="http://www.w3.org/2000/svg">
<path d="M13.1158 7.80376C13.0573 8.88885 12.6856 9.93374 12.0459 10.8121C11.4061 11.6905 10.5256 12.3648 9.51086 12.7535C8.49607 13.1421 7.39042 13.2285 6.32758 13.0022C5.26473 12.7759 4.29019 12.2466 3.52176 11.4782C2.75333 10.7099 2.2239 9.73539 1.99748 8.67257C1.77106 7.60975 1.85734 6.5041 2.24589 5.48927C2.63445 4.47443 3.30863 3.59387 4.18696 2.95403C5.06528 2.31418 6.11014 1.94245 7.19522 1.88376C7.44835 1.87001 7.58085 2.17126 7.44647 2.38563C6.99703 3.10473 6.80458 3.95492 6.90053 4.79747C6.99648 5.64003 7.37517 6.42518 7.9748 7.0248C8.57442 7.62443 9.35958 8.00312 10.2021 8.09907C11.0447 8.19502 11.8949 8.00257 12.614 7.55313C12.829 7.41876 13.1296 7.55063 13.1158 7.80376Z" stroke="black" stroke-width="1.5" stroke-linecap="round" stroke-linejoin="round"/>
</svg>
