<svg width="15" height="15" viewBox="0 0 15 15" fill="none" xmlns="http://www.w3.org/2000/svg">
<path fill-rule="evenodd" clip-rule="evenodd" d="M8.93306 8.93306C9.17714 8.68898 9.57286 8.68898 9.81694 8.93306L12.5 11.6161V10.125C12.5 9.77982 12.7798 9.5 13.125 9.5C13.4702 9.5 13.75 9.77982 13.75 10.125V13.125C13.75 13.4702 13.4702 13.75 13.125 13.75H10.125C9.77982 13.75 9.5 13.4702 9.5 13.125C9.5 12.7798 9.77982 12.5 10.125 12.5H11.6161L8.93306 9.81694C8.68898 9.57286 8.68898 9.17714 8.93306 8.93306Z" fill="black"/>
<path fill-rule="evenodd" clip-rule="evenodd" d="M6.06694 8.93306C6.31102 9.17714 6.31102 9.57286 6.06694 9.81694L3.38388 12.5H4.875C5.22018 12.5 5.5 12.7798 5.5 13.125C5.5 13.4702 5.22018 13.75 4.875 13.75H1.875C1.52982 13.75 1.25 13.4702 1.25 13.125V10.125C1.25 9.77982 1.52982 9.5 1.875 9.5C2.22018 9.5 2.5 9.77982 2.5 10.125V11.6161L5.18306 8.93306C5.42714 8.68898 5.82286 8.68898 6.06694 8.93306Z" fill="black"/>
<path fill-rule="evenodd" clip-rule="evenodd" d="M10.125 2.5C9.77982 2.5 9.5 2.22018 9.5 1.875C9.5 1.52982 9.77982 1.25 10.125 1.25H13.125C13.4702 1.25 13.75 1.52982 13.75 1.875V4.875C13.75 5.22018 13.4702 5.5 13.125 5.5C12.7798 5.5 12.5 5.22018 12.5 4.875V3.38388L9.81694 6.06694C9.57286 6.31102 9.17714 6.31102 8.93306 6.06694C8.68898 5.82286 8.68898 5.42714 8.93306 5.18306L11.6161 2.5H10.125Z" fill="black"/>
<path fill-rule="evenodd" clip-rule="evenodd" d="M1.25 1.875C1.25 1.52982 1.52982 1.25 1.875 1.25H4.875C5.22018 1.25 5.5 1.52982 5.5 1.875C5.5 2.22018 5.22018 2.5 4.875 2.5H3.38388L6.06694 5.18306C6.31102 5.42714 6.31102 5.82286 6.06694 6.06694C5.82286 6.31102 5.42714 6.31102 5.18306 6.06694L2.5 3.38388V4.875C2.5 5.22018 2.22018 5.5 1.875 5.5C1.52982 5.5 1.25 5.22018 1.25 4.875V1.875Z" fill="black"/>
</svg>
