<svg width="15" height="15" viewBox="0 0 15 15" fill="none" xmlns="http://www.w3.org/2000/svg">
<path fill-rule="evenodd" clip-rule="evenodd" d="M7.50006 5.15625C6.20565 5.15625 5.15631 6.20558 5.15631 7.5C5.15631 8.79442 6.20565 9.84375 7.50006 9.84375C8.79448 9.84375 9.84381 8.79442 9.84381 7.5C9.84381 6.20558 8.79448 5.15625 7.50006 5.15625ZM4.21881 7.5C4.21881 5.68782 5.68788 4.21875 7.50006 4.21875C9.31225 4.21875 10.7813 5.68782 10.7813 7.5C10.7813 9.31219 9.31225 10.7813 7.50006 10.7813C5.68788 10.7813 4.21881 9.31219 4.21881 7.5Z" fill="black"/>
<path fill-rule="evenodd" clip-rule="evenodd" d="M5.49278 1.24728C5.62152 1.20572 5.76195 1.22181 5.87795 1.29141L7.24816 2.11354C7.41611 2.10603 7.58432 2.10603 7.75227 2.11355L9.11678 1.29699C9.23183 1.22814 9.37085 1.21186 9.4987 1.25225C10.3941 1.53515 11.2174 2.00928 11.9115 2.64182C12.011 2.7325 12.0667 2.86157 12.0644 2.99617L12.0376 4.58889C12.1302 4.73098 12.2151 4.87789 12.292 5.029L13.681 5.80125C13.7979 5.86628 13.8815 5.97819 13.9107 6.1088C14.115 7.02408 14.1172 7.97293 13.917 8.88913C13.8882 9.02085 13.8041 9.1338 13.6862 9.19912L12.2918 9.97139C12.2149 10.1224 12.1301 10.2691 12.0376 10.4111L12.0644 12.0038C12.0667 12.1384 12.011 12.2675 11.9115 12.3582C11.2189 12.9894 10.3991 13.4649 9.50734 13.7527C9.3786 13.7943 9.23818 13.7782 9.12217 13.7086L7.75197 12.8865C7.58401 12.894 7.41581 12.894 7.24786 12.8865L5.88335 13.703C5.7683 13.7719 5.62927 13.7881 5.50143 13.7478C4.60598 13.4649 3.78271 12.9907 3.08862 12.3582C2.98912 12.2675 2.9334 12.1384 2.93568 12.0038L2.96252 10.4147C2.87054 10.2711 2.78572 10.1231 2.70839 9.97114L1.31916 9.19875C1.2022 9.13372 1.11861 9.02181 1.08945 8.89121C0.885097 7.97593 0.88294 7.02708 1.08313 6.11088C1.11191 5.97915 1.19602 5.8662 1.31397 5.80088L2.70833 5.02862C2.7852 4.87764 2.87004 4.73086 2.96249 4.58889L2.93568 2.99617C2.93341 2.86157 2.98913 2.73248 3.08863 2.64181C3.78126 2.01065 4.60103 1.53514 5.49278 1.24728ZM3.87669 3.19727L3.90234 4.72063C3.904 4.81932 3.87447 4.91601 3.81795 4.99693C3.69222 5.17694 3.58214 5.36739 3.48893 5.56619C3.44702 5.65556 3.37798 5.72942 3.29163 5.77725L1.95835 6.51568C1.84173 7.16678 1.84334 7.8336 1.96313 8.48413L3.2923 9.22313C3.37799 9.27077 3.44659 9.34409 3.48844 9.43277C3.58369 9.63463 3.6948 9.82862 3.82071 10.0129C3.87546 10.0931 3.90398 10.1882 3.90234 10.2853L3.87671 11.8027C4.38337 12.2307 4.96276 12.5643 5.58728 12.7876L6.89022 12.0079C6.97274 11.9585 7.06845 11.9357 7.16437 11.9426C7.38788 11.9586 7.61225 11.9586 7.83576 11.9426C7.93186 11.9357 8.02775 11.9586 8.11037 12.0082L9.41751 12.7925C10.04 12.5656 10.6175 12.2305 11.1234 11.8027L11.0978 10.2794C11.0961 10.1807 11.1257 10.084 11.1822 10.0031C11.3079 9.82306 11.418 9.63262 11.5112 9.43382C11.5531 9.34444 11.6222 9.27058 11.7085 9.22275L13.0418 8.48432C13.1584 7.83322 13.1568 7.16641 13.037 6.51587L11.7078 5.77687C11.6218 5.72904 11.553 5.65532 11.5112 5.56619C11.418 5.36739 11.3079 5.17694 11.1822 4.99693C11.1257 4.91601 11.0961 4.81932 11.0978 4.72063L11.1234 3.19733C10.6168 2.76932 10.0374 2.4357 9.41284 2.21237L8.10991 2.99207C8.02739 3.04146 7.93168 3.06426 7.83576 3.0574C7.61225 3.04141 7.38788 3.04141 7.16437 3.0574C7.06826 3.06427 6.97237 3.04137 6.88975 2.99179L5.58262 2.20751C4.96014 2.43438 4.3826 2.76946 3.87669 3.19727Z" fill="black"/>
</svg>
