<svg width="12" height="12" viewBox="0 0 12 12" fill="none" xmlns="http://www.w3.org/2000/svg">
<path d="M4.5 2.5V4.5" stroke="black" stroke-linecap="round" stroke-linejoin="round"/>
<path d="M5 4.5H4C3.72386 4.5 3.5 4.72386 3.5 5V7C3.5 7.27614 3.72386 7.5 4 7.5H5C5.27614 7.5 5.5 7.27614 5.5 7V5C5.5 4.72386 5.27614 4.5 5 4.5Z" stroke="black" stroke-linecap="round" stroke-linejoin="round"/>
<path d="M4.5 7.5V8.5" stroke="black" stroke-linecap="round" stroke-linejoin="round"/>
<path d="M8.5 1.5V2.5" stroke="black" stroke-linecap="round" stroke-linejoin="round"/>
<path d="M9 2.5H8C7.72386 2.5 7.5 2.72386 7.5 3V6C7.5 6.27614 7.72386 6.5 8 6.5H9C9.27614 6.5 9.5 6.27614 9.5 6V3C9.5 2.72386 9.27614 2.5 9 2.5Z" stroke="black" stroke-linecap="round" stroke-linejoin="round"/>
<path d="M8.5 6.5V8" stroke="black" stroke-linecap="round" stroke-linejoin="round"/>
<path d="M1.5 1.5V9.5C1.5 9.76522 1.60536 10.0196 1.79289 10.2071C1.98043 10.3946 2.23478 10.5 2.5 10.5H10.5" stroke="black" stroke-linecap="round" stroke-linejoin="round"/>
</svg>
