<svg width="16" height="15" viewBox="0 0 16 15" fill="none" xmlns="http://www.w3.org/2000/svg">
<path fill-rule="evenodd" clip-rule="evenodd" d="M6.29102 2.5C6.63619 2.5 6.91602 2.77982 6.91602 3.125V5.625C6.91602 5.97018 6.63619 6.25 6.29102 6.25C5.94584 6.25 5.66602 5.97018 5.66602 5.625V3.125C5.66602 2.77982 5.94584 2.5 6.29102 2.5Z" fill="black"/>
<path fill-rule="evenodd" clip-rule="evenodd" d="M5.66602 6.25V8.75H6.91602V6.25H5.66602ZM4.41602 6.25C4.41602 5.55964 4.97566 5 5.66602 5H6.91602C7.60637 5 8.16602 5.55964 8.16602 6.25V8.75C8.16602 9.44036 7.60637 10 6.91602 10H5.66602C4.97566 10 4.41602 9.44036 4.41602 8.75V6.25Z" fill="black"/>
<path fill-rule="evenodd" clip-rule="evenodd" d="M6.29102 8.75C6.63619 8.75 6.91602 9.02982 6.91602 9.375V10.625C6.91602 10.9702 6.63619 11.25 6.29102 11.25C5.94584 11.25 5.66602 10.9702 5.66602 10.625V9.375C5.66602 9.02982 5.94584 8.75 6.29102 8.75Z" fill="black"/>
<path fill-rule="evenodd" clip-rule="evenodd" d="M11.291 1.25C11.6362 1.25 11.916 1.52982 11.916 1.875V3.125C11.916 3.47018 11.6362 3.75 11.291 3.75C10.9458 3.75 10.666 3.47018 10.666 3.125V1.875C10.666 1.52982 10.9458 1.25 11.291 1.25Z" fill="black"/>
<path fill-rule="evenodd" clip-rule="evenodd" d="M10.666 3.75V7.5H11.916V3.75H10.666ZM9.41602 3.75C9.41602 3.05964 9.97566 2.5 10.666 2.5H11.916C12.6064 2.5 13.166 3.05964 13.166 3.75V7.5C13.166 8.19036 12.6064 8.75 11.916 8.75H10.666C9.97566 8.75 9.41602 8.19036 9.41602 7.5V3.75Z" fill="black"/>
<path fill-rule="evenodd" clip-rule="evenodd" d="M11.291 7.5C11.6362 7.5 11.916 7.77982 11.916 8.125V10C11.916 10.3452 11.6362 10.625 11.291 10.625C10.9458 10.625 10.666 10.3452 10.666 10V8.125C10.666 7.77982 10.9458 7.5 11.291 7.5Z" fill="black"/>
<path fill-rule="evenodd" clip-rule="evenodd" d="M2.54102 1.25C2.88619 1.25 3.16602 1.52982 3.16602 1.875V11.875C3.16602 12.0408 3.23186 12.1997 3.34907 12.3169C3.46628 12.4342 3.62526 12.5 3.79102 12.5H13.791C14.1362 12.5 14.416 12.7798 14.416 13.125C14.416 13.4702 14.1362 13.75 13.791 13.75H3.79102C3.29373 13.75 2.81682 13.5525 2.46519 13.2008C2.11356 12.8492 1.91602 12.3723 1.91602 11.875V1.875C1.91602 1.52982 2.19584 1.25 2.54102 1.25Z" fill="black"/>
</svg>
